<svg width="256" height="64" viewBox="0 0 256 64" fill="none" xmlns="http://www.w3.org/2000/svg">
  <rect x="0" y="0" width="64" height="64" rx="18" fill="url(#bg)"/>
  <path d="M18 34C18 24.6112 25.6112 17 35 17H43.5C47.6421 17 51 20.3579 51 24.5V35.5C51 39.6421 47.6421 43 43.5 43H25C21.134 43 18 39.866 18 36V34Z" fill="white"/>
  <path d="M24 31L33 22" stroke="#2563EB" stroke-width="4.5" stroke-linecap="round"/>
  <path d="M33 22L42 31" stroke="#0EA5E9" stroke-width="4.5" stroke-linecap="round"/>
  <path d="M27 39H39" stroke="#0D2240" stroke-width="4.5" stroke-linecap="round"/>
  <path d="M89.48 41V22.24H98.264C101.133 22.24 103.325 23.008 104.84 24.544C106.355 26.0587 107.112 28.1227 107.112 30.736C107.112 33.3493 106.333 35.4347 104.776 36.992C103.24 38.528 101.037 39.296 98.168 39.296H93.992V41H89.48ZM93.992 35.6H97.912C99.32 35.6 100.387 35.2107 101.112 34.432C101.837 33.632 102.2 32.5547 102.2 31.2C102.2 29.8453 101.837 28.7893 101.112 28.032C100.408 27.2533 99.3627 26.864 97.976 26.864H93.992V35.6ZM119.17 41.384C117.485 41.384 115.991 41.032 114.69 40.328C113.41 39.6027 112.407 38.6107 111.682 37.352C110.978 36.0933 110.626 34.6427 110.626 33C110.626 31.336 110.978 29.8747 111.682 28.616C112.407 27.336 113.41 26.344 114.69 25.64C115.991 24.9147 117.485 24.552 119.17 24.552C120.855 24.552 122.338 24.9147 123.618 25.64C124.919 26.344 125.922 27.336 126.626 28.616C127.351 29.8747 127.714 31.336 127.714 33C127.714 34.6427 127.351 36.0933 126.626 37.352C125.922 38.6107 124.919 39.6027 123.618 40.328C122.338 41.032 120.855 41.384 119.17 41.384ZM119.17 37.288C120.45 37.288 121.485 36.8747 122.274 36.048C123.074 35.2213 123.474 34.2053 123.474 33C123.474 31.7947 123.074 30.7787 122.274 29.952C121.495 29.104 120.461 28.68 119.17 28.68C117.869 28.68 116.823 29.104 116.034 29.952C115.255 30.7787 114.866 31.7947 114.866 33C114.866 34.2053 115.255 35.2213 116.034 36.048C116.834 36.8747 117.879 37.288 119.17 37.288ZM135.266 41L128.674 24.936H133.282L137.458 35.952L141.794 24.936H145.266L149.506 35.92L153.746 24.936H158.258L151.602 41H147.842L143.458 30.28L139.154 41H135.266ZM167.898 41.384C165.679 41.384 163.823 40.68 162.33 39.272C160.837 37.8427 160.09 35.7547 160.09 33.008C160.09 31.2373 160.442 29.712 161.146 28.432C161.871 27.1307 162.863 26.128 164.122 25.424C165.402 24.6987 166.863 24.336 168.506 24.336C170.127 24.336 171.53 24.6987 172.714 25.424C173.909 26.128 174.837 27.0987 175.498 28.336C176.17 29.552 176.506 30.928 176.506 32.464C176.506 32.7413 176.495 33.0293 176.474 33.328C176.474 33.6267 176.463 33.9573 176.442 34.32H164.458C164.607 35.3973 165.007 36.224 165.658 36.8C166.33 37.376 167.157 37.664 168.138 37.664C168.885 37.664 169.514 37.504 170.026 37.184C170.559 36.8427 170.954 36.3973 171.21 35.848H175.818C175.541 36.776 175.071 37.6293 174.41 38.408C173.749 39.1653 172.917 39.7733 171.914 40.232C170.933 40.6693 169.594 40.904 167.898 41.384ZM164.506 31.52H171.898C171.834 30.5707 171.487 29.8187 170.858 29.264C170.229 28.7093 169.423 28.432 168.442 28.432C167.525 28.432 166.751 28.6987 166.122 29.232C165.493 29.744 164.954 30.5067 164.506 31.52ZM179.826 41V24.936H183.842L184.226 27.944C184.802 26.9093 185.581 26.0987 186.562 25.512C187.565 24.9253 188.738 24.632 190.082 24.632V29.4H188.818C187.933 29.4 187.149 29.5387 186.466 29.816C185.783 30.0933 185.25 30.5707 184.866 31.248C184.482 31.9253 184.29 32.864 184.29 34.064V41H179.826ZM199.633 41.384C197.414 41.384 195.558 40.68 194.065 39.272C192.572 37.8427 191.825 35.7547 191.825 33.008C191.825 31.2373 192.177 29.712 192.881 28.432C193.606 27.1307 194.598 26.128 195.857 25.424C197.137 24.6987 198.598 24.336 200.241 24.336C201.862 24.336 203.265 24.6987 204.449 25.424C205.644 26.128 206.572 27.0987 207.233 28.336C207.905 29.552 208.241 30.928 208.241 32.464C208.241 32.7413 208.23 33.0293 208.209 33.328C208.209 33.6267 208.198 33.9573 208.177 34.32H196.193C196.342 35.3973 196.742 36.224 197.393 36.8C198.065 37.376 198.892 37.664 199.873 37.664C200.62 37.664 201.249 37.504 201.761 37.184C202.294 36.8427 202.689 36.3973 202.945 35.848H207.553C207.276 36.776 206.806 37.6293 206.145 38.408C205.484 39.1653 204.652 39.7733 203.649 40.232C202.668 40.6693 201.329 41.0533 199.633 41.384ZM196.241 31.52H203.633C203.569 30.5707 203.222 29.8187 202.593 29.264C201.964 28.7093 201.158 28.432 200.177 28.432C199.26 28.432 198.486 28.6987 197.857 29.232C197.228 29.744 196.689 30.5067 196.241 31.52ZM218.897 41.384C217.425 41.384 216.092 41.0213 214.897 40.296C213.702 39.5707 212.753 38.568 212.049 37.288C211.366 35.9867 211.025 34.4827 211.025 32.776C211.025 31.0693 211.366 29.5653 212.049 28.264C212.753 26.9627 213.702 25.9493 214.897 25.224C216.092 24.4987 217.425 24.136 218.897 24.136C220.092 24.136 221.142 24.3707 222.049 24.84C222.955 25.288 223.681 25.9067 224.225 26.696V18.2H228.689V41H224.737L224.225 38.696C223.723 39.4213 223.03 40.0507 222.145 40.584C221.281 41.1173 220.198 41.384 218.897 41.384ZM219.857 37.448C221.137 37.448 222.177 37.0133 222.977 36.144C223.798 35.2747 224.209 34.152 224.209 32.776C224.209 31.4 223.798 30.2773 222.977 29.408C222.177 28.5387 221.137 28.104 219.857 28.104C218.577 28.104 217.526 28.5387 216.705 29.408C215.905 30.256 215.505 31.3787 215.505 32.776C215.505 34.152 215.905 35.2747 216.705 36.144C217.526 37.0133 218.577 37.448 219.857 37.448Z" fill="#0D2240"/>
  <defs>
    <linearGradient id="bg" x1="10" y1="7" x2="56" y2="57" gradientUnits="userSpaceOnUse">
      <stop stop-color="#2563EB"/>
      <stop offset="1" stop-color="#0EA5E9"/>
    </linearGradient>
  </defs>
</svg>
